<svg width="109" height="89" viewBox="0 0 109 89" fill="none" xmlns="http://www.w3.org/2000/svg">
<path fill-rule="evenodd" clip-rule="evenodd" d="M22.4382 84.0373C23.5911 77.0796 29.6876 74.2989 35.9152 72.062L36.1115 71.9961C40.5519 70.8139 48.461 66.0724 48.461 55.8972C48.461 47.2669 44.967 43.0568 43.0841 40.7911C42.7117 40.3338 42.2585 39.7488 42.3592 39.8765C42.2081 39.5428 41.4682 37.6067 42.5353 33.1001C43.0388 30.9866 42.188 29.8291 42.188 29.8291C40.8389 26.7972 38.3318 21.1452 40.2146 16.581C42.7419 10.2657 44.9822 9.0216 49.0398 7.1967C49.2765 7.0896 49.508 6.966 49.7245 6.8259C50.4897 6.3234 53.7368 4.9433 57.407 4.9433C59.2446 4.9433 60.7901 5.2934 62.0134 5.9897C63.4835 6.8177 64.8931 8.3996 67.0226 13.4748C70.9897 22.5294 68.4775 27.5922 67.2088 29.3471C66.3681 30.5129 66.0812 31.9836 66.4084 33.3759C67.3901 37.5243 66.7557 39.275 66.5897 39.6253C66.5493 39.6746 65.9553 40.4286 65.6532 40.7911C63.7755 43.0568 60.2765 47.2669 60.2765 55.8972C60.2765 66.0724 68.1906 70.8139 72.6308 71.9961L72.8273 72.062C79.0548 74.2989 85.1513 77.0796 86.3042 84.0373H22.4382ZM74.0808 67.2628C74.0808 67.2628 65.2203 65.1495 65.2203 55.8972C65.2203 47.7695 68.8602 44.9063 70.2648 42.9291C70.2648 42.9291 73.1545 40.3997 71.2163 32.239C74.4432 27.7653 75.4904 20.482 71.5435 11.4892C69.3435 6.2368 67.4052 3.3574 64.4451 1.6848C62.2752 0.4531 59.8084 0 57.407 0C52.9415 0 48.7075 1.5818 47.016 2.69C42.0723 4.9104 38.7495 6.9537 35.6283 14.7436C32.9248 21.2895 36.1417 28.3914 37.7276 31.9589C35.7944 40.1237 38.4727 42.9291 38.4727 42.9291C39.8823 44.9063 43.5171 47.7695 43.5171 55.8972C43.5171 65.1495 34.6616 67.2628 34.6616 67.2628C29.0384 69.2855 17.2982 73.1619 17.2982 86.5091C17.2982 86.5091 17.2982 88.9807 19.7699 88.9807H88.9725C91.4443 88.9807 91.4443 86.5091 91.4443 86.5091C91.4443 73.1619 79.7042 69.2855 74.0808 67.2628ZM98.2507 61.8168C98.2507 61.8168 92.7129 60.5605 92.7129 53.3637C92.7129 47.0404 94.6159 44.8158 95.7386 43.2792C95.7386 43.2792 97.8833 41.0918 96.3378 34.7478C97.6064 31.9671 100.184 26.443 98.0192 21.3554C95.5221 15.2996 93.8658 13.7054 89.9139 11.9795C88.5596 11.1184 85.1715 9.8867 81.5972 9.8867C79.9106 9.8867 78.1889 10.1875 76.6131 10.9042C77.2424 12.5025 77.776 14.0886 78.1587 15.6499C78.219 15.6127 78.2844 15.5674 78.3499 15.5304C79.1907 15.0649 80.2881 14.8301 81.5972 14.8301C84.1545 14.8301 86.6465 15.7569 87.2557 16.1441C87.4722 16.2843 87.7037 16.4079 87.9354 16.5109C90.367 17.5695 91.2782 17.9691 93.4479 23.2379C94.757 26.311 92.8942 30.3935 91.8924 32.5891C91.4292 33.5985 91.2731 34.8384 91.535 35.9136C92.2095 38.6901 91.8974 39.9837 91.7867 40.305C91.7766 40.3214 91.7616 40.3421 91.7464 40.3627L91.5803 40.5892C90.2461 42.3894 87.7692 45.751 87.7692 53.3637C87.7692 61.8705 93.4882 65.6357 96.8058 66.5501C99.9624 67.6789 102.877 69.4502 103.617 74.1464L92.9295 74.1506C93.8759 75.6049 94.6562 77.2608 95.2503 79.0939L106.27 79.0899C108.742 79.0899 108.742 76.6181 108.742 76.6181C108.742 66.7314 102.751 63.3905 98.2507 61.8168ZM11.9365 66.5501C15.2542 65.6357 20.9733 61.8705 20.9733 53.3637C20.9733 45.751 18.4913 42.3894 17.1622 40.5892L16.9961 40.3627C16.981 40.3421 16.9658 40.3214 16.9508 40.305C16.845 39.9837 16.5279 38.6901 17.2074 35.9136C17.4694 34.8384 17.3132 33.5985 16.85 32.5891C15.8483 30.3935 13.9856 26.311 15.2944 23.2379C17.4642 17.9691 18.3705 17.5695 20.807 16.5109C21.0437 16.4079 21.2702 16.2843 21.4867 16.1441C22.096 15.7569 24.5879 14.8301 27.1453 14.8301C28.3737 14.8301 29.3958 15.0566 30.2163 15.4687C30.4327 14.6158 30.6895 13.7632 31.0369 12.9105C31.339 12.1524 31.6612 11.5057 31.9733 10.8341C30.4379 10.1669 28.7765 9.8867 27.1453 9.8867C23.571 9.8867 20.1829 11.1184 18.8285 11.9795C14.8766 13.7054 13.2152 15.2996 10.7233 21.3554C8.5584 26.443 11.1361 31.9671 12.4047 34.7478C10.8541 41.0918 13.0039 43.2792 13.0039 43.2792C14.1266 44.8158 16.0345 47.0404 16.0345 53.3637C16.0345 60.5605 10.4916 61.8168 10.4916 61.8168C5.996 63.3905 0 66.7314 0 76.6181C0 76.6181 -5.49316e-06 79.0899 2.47189 79.0899L13.4922 79.0939C14.0862 77.2608 14.8616 75.6049 15.8129 74.1506L5.125 74.1464C5.865 69.4502 8.78 67.6789 11.9365 66.5501Z" fill="white" fill-opacity="0.33"/>
</svg>
