<svg width="80" height="80" viewBox="0 0 80 80" fill="none" xmlns="http://www.w3.org/2000/svg">
<path d="M45.2943 73.1954L34.7167 47.511L72.4908 9.7367L45.2943 73.1954ZM6.47271 34.3738L69.9278 7.1734L32.157 44.9477L6.47271 34.3738ZM79.6641 1.8109C79.6641 0.811298 78.8529 0 77.8534 0C77.5772 0 77.319 0.0738015 77.0827 0.191601L77.0755 0.176904L1.11391 32.7325C1.11001 32.7325 1.10291 32.7363 1.09531 32.7398L1.03291 32.7694L1.03621 32.7767C0.427911 33.0718 0 33.6803 0 34.3995C0 35.222 0.556901 35.8896 1.3091 36.1109L1.30201 36.1403L31.2095 48.4552L43.5241 78.3663L43.5537 78.3553C43.7747 79.1075 44.4425 79.6645 45.2649 79.6645C45.9842 79.6645 46.5963 79.2367 46.8878 78.6282L46.8988 78.6318L46.9246 78.5691C46.9284 78.5617 46.9322 78.5581 46.9322 78.5507L79.4912 2.589L79.4689 2.578C79.5832 2.3455 79.6641 2.0911 79.6641 1.8109ZM28.9705 59.7483C28.4688 59.7483 28.0154 59.9512 27.6871 60.2795L22.2582 65.7121C21.9301 66.0367 21.7271 66.4941 21.7271 66.9919C21.7271 67.9915 22.5384 68.8028 23.5378 68.8028C24.0356 68.8028 24.4896 68.5999 24.8179 68.2718L30.2506 62.839C30.5788 62.5145 30.7779 62.0609 30.7779 61.5592C30.7779 60.5598 29.9699 59.7483 28.9705 59.7483ZM28.9705 52.5085C28.9705 51.509 28.1592 50.6939 27.1597 50.6939C26.6581 50.6939 26.2047 50.9005 25.8797 51.225L7.7708 69.3302C7.4464 69.6622 7.2434 70.1159 7.2434 70.6101C7.2434 71.6132 8.0547 72.421 9.0541 72.421C9.5525 72.421 10.0061 72.2219 10.3342 71.8936L28.4394 53.7846C28.7675 53.46 28.9705 53.0065 28.9705 52.5085ZM17.5739 53.7846L19.3851 51.9774C19.7134 51.6491 19.9164 51.1956 19.9164 50.6939C19.9164 49.6981 19.1046 48.8868 18.105 48.8868C17.6072 48.8868 17.1538 49.0896 16.8255 49.4141L15.0148 51.225C14.6861 51.5569 14.4837 52.0069 14.4837 52.5085C14.4837 53.5042 15.2949 54.3157 16.2943 54.3157C16.7959 54.3157 17.2456 54.1166 17.5739 53.7846Z" fill="white" fill-opacity="0.33"/>
</svg>
