<svg width="50" height="50" viewBox="0 0 50 50" fill="none" xmlns="http://www.w3.org/2000/svg">
<path d="M19.6634 5C13.2317 5 8 10.2366 8 16.6699V33.3366C8 39.7683 13.2366 45 19.6699 45H36.3366C42.7683 45 48 39.7634 48 33.3301V16.6634C48 10.2317 42.7634 5 36.3301 5H19.6634ZM39.6667 11.6667C40.5867 11.6667 41.3333 12.4133 41.3333 13.3333C41.3333 14.2533 40.5867 15 39.6667 15C38.7467 15 38 14.2533 38 13.3333C38 12.4133 38.7467 11.6667 39.6667 11.6667ZM28 15C33.515 15 38 19.485 38 25C38 30.515 33.515 35 28 35C22.485 35 18 30.515 18 25C18 19.485 22.485 15 28 15ZM28 18.3333C26.2319 18.3333 24.5362 19.0357 23.286 20.286C22.0357 21.5362 21.3333 23.2319 21.3333 25C21.3333 26.7681 22.0357 28.4638 23.286 29.714C24.5362 30.9643 26.2319 31.6667 28 31.6667C29.7681 31.6667 31.4638 30.9643 32.714 29.714C33.9643 28.4638 34.6667 26.7681 34.6667 25C34.6667 23.2319 33.9643 21.5362 32.714 20.286C31.4638 19.0357 29.7681 18.3333 28 18.3333Z" fill="white"/>
</svg>
