<svg id="Слой_1" data-name="Слой 1" xmlns="http://www.w3.org/2000/svg" xmlns:xlink="http://www.w3.org/1999/xlink" viewBox="0 0 183.62 178.29"><defs><style>.cls-1{fill:url(#Безымянный_градиент_23);}.cls-2{fill:url(#Безымянный_градиент_13);}.cls-3{fill:url(#Безымянный_градиент_29);}.cls-4{fill:#c6c6c6;}.cls-5{fill:url(#Безымянный_градиент_23-2);}.cls-6{fill:#9e47e6;}.cls-7{fill:#fff;stroke:#1d1d1b;stroke-miterlimit:10;}.cls-8{fill:#f48028;}</style><linearGradient id="Безымянный_градиент_23" x1="349.64" y1="243.1" x2="420.59" y2="228.54" gradientUnits="userSpaceOnUse"><stop offset="0" stop-color="#1eaffc"/><stop offset="1" stop-color="#0292fc"/></linearGradient><linearGradient id="Безымянный_градиент_13" x1="459.32" y1="243" x2="442.61" y2="310.66" gradientUnits="userSpaceOnUse"><stop offset="0" stop-color="#9e47e6"/><stop offset="1" stop-color="#66368c"/></linearGradient><linearGradient id="Безымянный_градиент_29" x1="453.92" y1="338.54" x2="389.9" y2="289.72" gradientUnits="userSpaceOnUse"><stop offset="0" stop-color="#f48028"/><stop offset="1" stop-color="#f4710f"/></linearGradient><linearGradient id="Безымянный_градиент_23-2" x1="316.57" y1="243.94" x2="360.19" y2="234.99" xlink:href="#Безымянный_градиент_23"/></defs><path class="cls-1" d="M435.3,236.14c-.73,8.32-4.84,14.84-10.65,20.53-1.56,1.53-2.4,1.27-3.68-.41-4.18-5.47-8.25-11.07-12.88-16.13-9.36-10.22-20.57-17.72-34.47-20-5.75-.95-11.73-.51-17.6-.64a23.16,23.16,0,0,0-2.63.13c-.45-.44-.91-.86-1.37-1.27,5.52-2.47,11-5.13,16.6-7.29,13.19-5.06,26.86-7.65,41-6.28,5.41.52,10.73,2,16.05,3.26a4.69,4.69,0,0,1,2.66,2.06C433,218.14,436.14,226.6,435.3,236.14Z" transform="translate(-321.81 -169.61)"/><path class="cls-2" d="M488.23,237.25c0,2.28.14,4.57,0,6.84-1.21,16.54-5,32.42-13.94,46.54-3.61,5.69-8.5,10.57-12.92,15.72a4.57,4.57,0,0,1-3,1.5c-8.94.17-17.59-1.11-25.29-6.06-7.46-4.78-11.66-11.82-13.77-20.3-.57-2.28.18-2.95,2.38-3.08a109.47,109.47,0,0,0,26.89-4.83c16.61-5.28,29-15.44,36.6-31.24.84-1.74,1.71-3.47,2.58-5.21Z" transform="translate(-321.81 -169.61)"/><path class="cls-3" d="M407,342.13c-3.4-2.28-6.91-4.41-10.19-6.84-12.63-9.37-23.39-20.48-30.39-34.71-2.51-5.09-4-10.69-5.89-16.09-.74-2.17-.12-4.12,1.15-6.1,3.58-5.57,7.65-10.64,13.11-14.49,8.74-6.16,18.24-6.95,28.28-4.09,2,.57,2.38,1.48,1.44,3.44a112.11,112.11,0,0,0-9.34,26.46c-3.71,18.32-.25,35,11.19,49.86.46.6.82,1.29,1.22,1.93Z" transform="translate(-321.81 -169.61)"/><path class="cls-4" d="M351.76,243.23a2.49,2.49,0,0,0-.52,2,.42.42,0,0,0,0,.1h0a53.84,53.84,0,0,0-8.25,8.28c0-.94,0-1.89,0-2.83v-4.11q0-10.54,0-21.09c2.43-.68,4.86-1.26,7.27-1.71l.25.18a10.12,10.12,0,0,1,4.52,8.79A19.28,19.28,0,0,1,351.76,243.23Z" transform="translate(-321.81 -169.61)"/><path class="cls-4" d="M407.61,245.85c-10.81-6.5-22.12-10.74-34.94-9.36a40.32,40.32,0,0,0-15.14,4.69l.22-.43c3-6.07,3.3-10.94.89-15.32A19.33,19.33,0,0,0,357,223a54,54,0,0,1,30.67,5.93,65.76,65.76,0,0,1,18.15,14.21A9.15,9.15,0,0,1,407.61,245.85Z" transform="translate(-321.81 -169.61)"/><path class="cls-4" d="M486,229.9c-6.06,25.83-21.6,37.67-48,42.56a11,11,0,0,1-1.52,0c3.5-2.23,6.59-4.08,9.55-6.11,8.69-5.94,15-13.75,18.34-23.84,1.89-5.76,1.62-23.69,1.62-23.69S485.87,229.94,486,229.9Z" transform="translate(-321.81 -169.61)"/><path class="cls-4" d="M427,344.71c-1.65.94-3.32,1.83-5,2.67a3.26,3.26,0,0,1-4.22-.57c-14.82-14-22.87-30.66-19.81-51.5.75-5.14,2.14-10.19,3.24-15.27l.82.1c.36,4.35.61,8.72,1.1,13.06,1.57,13.84,8.73,25.24,19.7,32.13A18.71,18.71,0,0,0,427,344.71Z" transform="translate(-321.81 -169.61)"/><path class="cls-5" d="M356.86,240.31a21.06,21.06,0,0,1-1.09,1.89,30,30,0,0,1-1.82,2.51,1.91,1.91,0,0,1-1.41.57c-.29-.13-.33-.26-.35-.31a.62.62,0,0,1,0-.31h0a2.7,2.7,0,0,1,.41-.87,20.24,20.24,0,0,0,3.5-10.88,11,11,0,0,0-4.41-9.23c-.17-.14-.35-.27-.53-.4a34.1,34.1,0,0,0-5.71-3.07l-.32-.15c-1.05-.48-1.82-.71-2.39-.34s-.68,1.15-.68,2.32v3.88q0,10.4,0,20.8v4.11c0,1.37,0,2.73,0,4.1v.37c0,3.35-.08,6.81.08,10.21a9.14,9.14,0,0,1-3.66,7.77c-2.91,2.33-7.09,3.36-10.16,2.5l-.48-.12a11.57,11.57,0,0,1-1.44-.46,7.39,7.39,0,0,1-4.32-4.63,7.55,7.55,0,0,1,1.32-6.34,12.32,12.32,0,0,1,9.95-4.88,10.58,10.58,0,0,1,4.08.77c.35.14.71.26,1.17.42l.81.27.66.23V207c0-.24,0-.48,0-.73a4.2,4.2,0,0,1,.09-1.53,2,2,0,0,1,1-1.08,1.75,1.75,0,0,1,.84.67c.83,6.19,4.77,10,9.44,14.12a.86.86,0,0,1,.14.13c.42.36.82.73,1.21,1.1.63.59,1.21,1.18,1.75,1.77.25.27.48.53.7.79s.48.57.7.85a20.5,20.5,0,0,1,1.89,2.83C360,230,359.72,234.55,356.86,240.31Z" transform="translate(-321.81 -169.61)"/><path class="cls-6" d="M432.94,200.09s20.94,24.79,29.25,6.5c7.11-11.2-7.87-13.72-7.87-13.72-27.66.59-20-23.26-20-23.26-14.31,22.87,10.22,32.28,10.22,32.28" transform="translate(-321.81 -169.61)"/><path class="cls-6" d="M463.68,213.76s33.25,22.61,40.86,18.83-36.43-26-36.43-26" transform="translate(-321.81 -169.61)"/><path class="cls-7" d="M452.81,206.23" transform="translate(-321.81 -169.61)"/><circle class="cls-8" cx="116.88" cy="162.24" r="15.01"/></svg>