<svg width="61" height="60" viewBox="0 0 61 60" fill="none" xmlns="http://www.w3.org/2000/svg">
<g clip-path="url(#clip0_289_2)">
<path d="M37.7023 22.1018C37.4598 24.8657 36.0944 27.0317 34.1643 28.922C33.646 29.4303 33.367 29.3439 32.9417 28.7858C31.5531 26.9686 30.201 25.1083 28.6629 23.4273C25.5534 20.0321 21.8294 17.5406 17.2117 16.7831C15.3015 16.4675 13.3149 16.6137 11.3648 16.5705C11.073 16.5683 10.7813 16.5828 10.4911 16.6137C10.3416 16.4675 10.1888 16.328 10.036 16.1918C11.8698 15.3713 13.6903 14.4876 15.5506 13.77C19.9325 12.089 24.4738 11.2286 29.1712 11.6837C30.9684 11.8565 32.7358 12.3482 34.5031 12.7667C34.8722 12.8777 35.187 13.1215 35.3868 13.4511C36.9382 16.122 37.9813 18.9325 37.7023 22.1018Z" fill="url(#paint0_linear_289_2)"/>
<path d="M55.286 22.4705C55.286 23.228 55.3325 23.9887 55.286 24.7428C54.8841 30.2376 53.625 35.513 50.6551 40.2038C49.4558 42.094 47.8313 43.7152 46.3629 45.4261C46.1059 45.7125 45.7497 45.8906 45.3663 45.9244C42.3964 45.9809 39.5228 45.5557 36.9648 43.9112C34.4865 42.3233 33.0912 39.9845 32.3903 37.1674C32.2009 36.41 32.4501 36.1874 33.1809 36.1442C36.2139 35.9845 39.215 35.4454 42.114 34.5396C47.632 32.7856 51.748 29.4104 54.2728 24.1615C54.5518 23.5834 54.8409 23.0087 55.1299 22.4307L55.286 22.4705Z" fill="url(#paint1_linear_289_2)"/>
<path d="M28.3008 57.3125C27.1713 56.5551 26.0052 55.8475 24.9156 55.0402C20.7198 51.9274 17.1453 48.2366 14.8198 43.5093C13.986 41.8183 13.491 39.958 12.8631 38.164C12.6173 37.4431 12.8232 36.7953 13.2451 36.1376C14.4344 34.2872 15.7865 32.6029 17.6004 31.3239C20.5039 29.2775 23.6599 29.015 26.9952 29.9651C27.6596 30.1545 27.7859 30.4568 27.4736 31.1079C26.0753 33.8965 25.0328 36.8497 24.3708 39.8982C23.1383 45.9842 24.2877 51.5254 28.0882 56.462C28.241 56.6614 28.3606 56.8906 28.4935 57.1032L28.3008 57.3125Z" fill="url(#paint2_linear_289_2)"/>
<path d="M9.94963 24.4571C9.87495 24.5491 9.82087 24.656 9.79107 24.7706C9.76127 24.8852 9.75643 25.0049 9.77688 25.1216C9.77555 25.1326 9.77555 25.1437 9.77688 25.1548C8.76619 25.9695 7.84721 26.8918 7.03616 27.9055C7.03616 27.5932 7.03616 27.2776 7.03616 26.9653V25.5999C7.03616 23.2656 7.03616 20.9302 7.03616 18.5937C7.84343 18.3678 8.6507 18.1751 9.45132 18.0256L9.53437 18.0854C10.0134 18.4031 10.403 18.8384 10.6659 19.3497C10.9288 19.8609 11.0562 20.431 11.0359 21.0055C11.0131 22.2365 10.636 23.4349 9.94963 24.4571V24.4571Z" fill="white"/>
<path d="M28.5034 25.3275C24.9123 23.1682 21.155 21.7596 16.8961 22.2181C15.133 22.3995 13.4234 22.9291 11.8665 23.7761L11.9396 23.6333C12.9362 21.6168 13.0358 19.9989 12.2352 18.5438C12.0743 18.2613 11.8922 17.9915 11.6904 17.7366C15.2066 17.3751 18.7512 18.0604 21.8792 19.7066C24.1513 20.9128 26.1926 22.5109 27.9088 24.4272C28.1591 24.6895 28.3605 24.9944 28.5034 25.3275V25.3275Z" fill="white"/>
<path d="M54.5452 20.0288C52.532 28.6097 47.3695 32.5431 38.5992 34.1676C38.4311 34.1792 38.2624 34.1792 38.0943 34.1676C39.257 33.4267 40.2835 32.8122 41.2668 32.1378C44.1537 30.1645 46.25 27.5699 47.3595 24.2179C47.9874 22.3044 47.8977 16.3479 47.8977 16.3479C47.8977 16.3479 54.502 20.0421 54.5452 20.0288Z" fill="white"/>
<path d="M34.9449 58.1696C34.3968 58.4819 33.842 58.7775 33.2839 59.0566C33.0663 59.1983 32.8051 59.2572 32.5478 59.2224C32.2904 59.1877 32.0541 59.0616 31.882 58.8672C26.9587 54.2163 24.2844 48.6817 25.301 41.7585C25.5501 40.051 26.0119 38.3733 26.3773 36.6857L26.6497 36.7189C26.7693 38.164 26.8524 39.6158 27.0151 41.0576C27.5367 45.6553 29.9153 49.4425 33.5596 51.7314C33.1643 52.8266 33.0846 54.0108 33.3296 55.149C33.5745 56.2873 34.1342 57.3339 34.9449 58.1696V58.1696Z" fill="white"/>
<path d="M11.6439 23.4871C11.5341 23.7025 11.4132 23.9121 11.2818 24.115C11.0947 24.4031 10.8929 24.6815 10.6772 24.9488C10.6162 25.0108 10.5432 25.0595 10.4626 25.0921C10.382 25.1247 10.2956 25.1404 10.2088 25.1382C10.1124 25.095 10.0991 25.0518 10.0925 25.0352C10.0838 25.0014 10.0838 24.966 10.0925 24.9322V24.9322C10.1202 24.8285 10.1664 24.7306 10.2287 24.6432C10.9554 23.5751 11.3591 22.3202 11.3914 21.0288C11.4138 20.4372 11.2922 19.8491 11.037 19.315C10.7818 18.7808 10.4007 18.3167 9.92638 17.9625C9.8699 17.916 9.8101 17.8728 9.75031 17.8296C9.15183 17.4302 8.51666 17.0887 7.8534 16.8097L7.74709 16.7599C7.39827 16.6004 7.14247 16.524 6.95311 16.6469C6.76375 16.7698 6.72721 17.029 6.72721 17.4177V18.7066C6.72721 21.0099 6.72721 23.3132 6.72721 25.6165V26.9819C6.72721 27.437 6.72721 27.8888 6.72721 28.344V28.4669C6.72721 29.5798 6.70064 30.7292 6.75379 31.8587C6.77812 32.3557 6.67994 32.851 6.46793 33.3011C6.25591 33.7512 5.93655 34.1423 5.53791 34.44C4.57119 35.214 3.18256 35.5562 2.16268 35.2705L2.00322 35.2306C1.8406 35.1902 1.68079 35.1391 1.52484 35.0778C1.1866 34.9438 0.882379 34.7363 0.634177 34.4703C0.385975 34.2043 0.199992 33.8864 0.0896962 33.5397C0.00197962 33.1781 -0.00417503 32.8015 0.0716705 32.4372C0.147516 32.0729 0.303464 31.7301 0.528213 31.4335C0.914272 30.9239 1.41436 30.5118 1.98837 30.2303C2.56239 29.9487 3.19438 29.8056 3.83368 29.8123C4.29795 29.8072 4.75862 29.8942 5.18909 30.0681C5.30536 30.1146 5.42496 30.1545 5.57778 30.2077L5.84686 30.2974L6.06612 30.3738V12.4212C6.06612 12.3415 6.06612 12.2618 6.06612 12.1787C6.04483 12.0089 6.05496 11.8366 6.09602 11.6705C6.15712 11.513 6.27591 11.3847 6.42823 11.3117C6.54228 11.3548 6.6399 11.4326 6.70728 11.5343C6.98301 13.5906 8.29191 14.8563 9.84332 16.225C9.86038 16.2377 9.87598 16.2521 9.88983 16.2682C10.0294 16.3878 10.1622 16.5107 10.2918 16.6336C10.5011 16.8296 10.6938 17.0256 10.8732 17.2217C10.9562 17.3113 11.0326 17.3977 11.1057 17.4841C11.1788 17.5705 11.2652 17.6735 11.3383 17.7665C11.5732 18.0619 11.7833 18.3764 11.9661 18.7066C12.687 20.062 12.594 21.5736 11.6439 23.4871Z" fill="url(#paint3_linear_289_2)"/>
<path d="M36.9183 10.1257C36.9183 10.1257 43.8747 18.3611 46.6353 12.285C48.9973 8.56432 44.0209 7.72715 44.0209 7.72715C34.832 7.92315 37.3767 0 37.3767 0C32.6228 7.59759 40.7719 10.7237 40.7719 10.7237" fill="#9E47E6"/>
<path d="M47.1303 14.667C47.1303 14.667 58.1762 22.1782 60.7043 20.9224C63.2324 19.6667 48.602 12.285 48.602 12.285" fill="#9E47E6"/>
<path d="M38.8284 58.8838C41.5824 58.8838 43.8149 56.6513 43.8149 53.8974C43.8149 51.1435 41.5824 48.9109 38.8284 48.9109C36.0745 48.9109 33.842 51.1435 33.842 53.8974C33.842 56.6513 36.0745 58.8838 38.8284 58.8838Z" fill="#F48028"/>
</g>
<defs>
<linearGradient id="paint0_linear_289_2" x1="9.24534" y1="24.4139" x2="32.8155" y2="19.577" gradientUnits="userSpaceOnUse">
<stop stop-color="#1EAFFC"/>
<stop offset="1" stop-color="#0292FC"/>
</linearGradient>
<linearGradient id="paint1_linear_289_2" x1="45.6819" y1="24.3807" x2="40.1307" y2="46.8579" gradientUnits="userSpaceOnUse">
<stop stop-color="#9E47E6"/>
<stop offset="1" stop-color="#66368C"/>
</linearGradient>
<linearGradient id="paint2_linear_289_2" x1="43.888" y1="56.1199" x2="22.62" y2="39.9015" gradientUnits="userSpaceOnUse">
<stop stop-color="#F48028"/>
<stop offset="1" stop-color="#F4710F"/>
</linearGradient>
<linearGradient id="paint3_linear_289_2" x1="3932.55" y1="5880.21" x2="4490.95" y2="5821.05" gradientUnits="userSpaceOnUse">
<stop stop-color="#1EAFFC"/>
<stop offset="1" stop-color="#0292FC"/>
</linearGradient>
<clipPath id="clip0_289_2">
<rect width="61" height="59.2293" fill="white"/>
</clipPath>
</defs>
</svg>
