<svg width="80" height="80" fill="none" xmlns="http://www.w3.org/2000/svg"><path d="M45.294 73.195L34.717 47.511 72.49 9.737 45.294 73.195zM6.473 34.374l63.455-27.2-37.771 37.774L6.473 34.374zM79.664 1.81c0-1-.811-1.811-1.81-1.811a1.72 1.72 0 00-.771.192l-.007-.015L1.114 32.733a.056.056 0 00-.019.007l-.062.03.003.007A1.807 1.807 0 000 34.4c0 .822.557 1.49 1.31 1.71l-.008.03 29.907 12.315 12.315 29.911.03-.01c.22.752.889 1.309 1.71 1.309.72 0 1.332-.428 1.624-1.037l.01.004.027-.063c.003-.007.007-.01.007-.018l32.56-75.962-.023-.011a1.73 1.73 0 00.195-.767zM28.97 59.748c-.501 0-.955.203-1.283.532l-5.429 5.432a1.812 1.812 0 002.56 2.56l5.433-5.433a1.79 1.79 0 00.527-1.28c0-1-.808-1.81-1.807-1.81zm0-7.24a1.81 1.81 0 00-3.09-1.283L7.77 69.33a1.833 1.833 0 00-.527 1.28 1.81 1.81 0 001.811 1.811c.498 0 .952-.2 1.28-.527l18.105-18.11a1.79 1.79 0 00.532-1.276zm-11.396 1.277l1.811-1.808a1.809 1.809 0 00-1.28-3.09c-.498 0-.951.203-1.28.527l-1.81 1.811a1.81 1.81 0 002.56 2.56z" fill="#fff" fill-opacity=".33"/></svg>