<svg width="31" height="46" viewBox="0 0 31 46" fill="none" xmlns="http://www.w3.org/2000/svg">
<path fill-rule="evenodd" clip-rule="evenodd" d="M9.79097 36.7824H20.9795V39.577H9.79097V36.7824ZM8.39203 32.5905H22.3785V35.3851H8.39203V32.5905ZM13.1899 31.1934L11.5533 20.2883L13.3538 21.6358L15.3852 19.6053L17.418 21.6358L19.2174 20.2862L17.5806 31.1934H13.1899ZM8.05881 27.8047C3.95041 25.275 1.39894 20.6858 1.39894 15.8231C1.39894 8.11862 7.67264 1.8505 15.3852 1.8505C23.0964 1.8505 29.3716 8.11862 29.3716 15.8231C29.3716 20.7106 26.8813 25.1613 22.7117 27.7281L22.3785 27.9331V31.1934H18.9952L20.9724 18.0238L19.5877 17.8146L19.5136 18.3196L17.5477 19.7914L15.3852 17.6304L13.2214 19.7914L11.2569 18.3196L11.1814 17.8146L9.79811 18.0238L11.7755 31.1934H8.39203V28.0075L8.05881 27.8047ZM19.5806 43.7689H11.1899V40.9743H19.5806V43.7689ZM20.9795 45.166V40.9743H22.3785V36.7824H23.7774V32.5905V28.7072C28.1635 25.8546 30.7705 21.0688 30.7705 15.8231C30.7705 7.34845 23.8686 0.453125 15.3852 0.453125C6.90211 0.453125 0 7.34845 0 15.8231C0 21.0335 2.66961 25.9624 6.99309 28.7838V31.1934V32.5905V36.7824H8.39203V40.9743H9.79097V45.166H20.9795Z" fill="#F48028"/>
</svg>
