<svg width="49" height="46" viewBox="0 0 49 46" fill="none" xmlns="http://www.w3.org/2000/svg">
<path fill-rule="evenodd" clip-rule="evenodd" d="M15.975 1.42909C23.9443 1.42909 30.4278 7.51539 30.4278 14.9968C30.4278 22.4782 23.9443 28.5647 15.975 28.5647C8.0055 28.5647 1.52224 22.4782 1.52224 14.9968C1.52224 7.51539 8.0055 1.42909 15.975 1.42909ZM46.8495 40.7057L43.3605 43.9811L29.9831 31.4226L33.472 28.1473L46.8495 40.7057ZM15.975 29.9938C20.1059 29.9938 23.8627 28.5008 26.7027 26.0773L30.1124 29.2803L27.8302 31.4226L43.3605 46L49 40.7057L33.472 26.1264L31.19 28.2687L27.7781 25.0678C30.3596 22.4015 31.95 18.875 31.95 14.9968C31.95 6.72743 24.7838 0 15.975 0C7.16627 0 0 6.72743 0 14.9968C0 23.2663 7.16627 29.9938 15.975 29.9938Z" fill="#F4710F"/>
</svg>
