<svg width="49" height="42" viewBox="0 0 49 42" fill="none" xmlns="http://www.w3.org/2000/svg">
<path fill-rule="evenodd" clip-rule="evenodd" d="M40.0519 31.7395H39.2955V18.1356H40.0519C43.8001 18.1356 46.8522 21.1874 46.8522 24.9375C46.8522 28.6879 43.8001 31.7395 40.0519 31.7395ZM21.9155 40.0521V38.5396H26.4473V40.0521H21.9155ZM9.0683 31.7395H8.31107C4.56284 31.7395 1.51145 28.6879 1.51145 24.9375C1.51145 21.1874 4.56284 18.1356 8.31107 18.1356H9.0683V19.6479V31.7395ZM40.0519 16.625H39.2955V12.8459C39.2955 12.7191 39.1224 0 24.1818 0C9.24054 0 9.0683 12.7191 9.0683 12.8459V16.625H8.31107C3.73001 16.625 0 20.3541 0 24.9375C0 29.521 3.73001 33.2501 8.31107 33.2501H10.5796V19.6479V16.625V12.8459C10.5796 12.3841 10.7338 1.51061 24.1818 1.51061C37.5868 1.51061 37.7819 12.3841 37.7841 12.8459V16.625V17.3813V32.494V33.2501V35.7611L27.9611 39.6903V37.0292H20.4019V41.5625H27.3497L39.2955 36.7848V33.2501H40.0519C44.6327 33.2501 48.3636 29.521 48.3636 24.9375C48.3636 20.3541 44.6327 16.625 40.0519 16.625Z" fill="#F4710F"/>
</svg>
