<svg width="61" height="60" fill="none" xmlns="http://www.w3.org/2000/svg"><g clip-path="url(#clip0_289_2)"><path d="M37.702 22.102c-.242 2.764-1.608 4.93-3.538 6.82-.518.508-.797.422-1.222-.136-1.389-1.817-2.741-3.678-4.28-5.359-3.109-3.395-6.833-5.886-11.45-6.644-1.91-.316-3.897-.17-5.847-.213a7.703 7.703 0 00-.874.044c-.15-.146-.302-.286-.455-.422 1.834-.82 3.654-1.704 5.515-2.422 4.382-1.681 8.923-2.541 13.62-2.086 1.797.173 3.565.664 5.332 1.083.37.11.684.354.884.684 1.551 2.671 2.594 5.482 2.315 8.65z" fill="url(#paint0_linear_289_2)"/><path d="M55.286 22.47c0 .758.047 1.519 0 2.273-.402 5.495-1.661 10.77-4.63 15.46-1.2 1.891-2.825 3.512-4.293 5.223a1.518 1.518 0 01-.997.498c-2.97.057-5.843-.368-8.401-2.013-2.479-1.588-3.874-3.927-4.575-6.744-.19-.757.06-.98.79-1.023a36.365 36.365 0 008.934-1.604c5.518-1.754 9.634-5.13 12.159-10.378.279-.579.568-1.153.857-1.731l.156.04z" fill="url(#paint1_linear_289_2)"/><path d="M28.3 57.313c-1.129-.758-2.295-1.466-3.384-2.273-4.196-3.113-7.77-6.803-10.096-11.53-.834-1.692-1.329-3.552-1.957-5.346-.246-.72-.04-1.369.382-2.026 1.19-1.85 2.542-3.535 4.355-4.814 2.904-2.047 6.06-2.309 9.395-1.359.665.19.79.492.479 1.143a37.243 37.243 0 00-3.103 8.79c-1.233 6.086-.083 11.627 3.717 16.564.153.2.273.429.405.641l-.192.21z" fill="url(#paint2_linear_289_2)"/><path d="M9.95 24.457a.828.828 0 00-.173.665.139.139 0 000 .033 17.883 17.883 0 00-2.74 2.75v-9.311a28.18 28.18 0 012.414-.568l.083.06a3.362 3.362 0 011.502 2.92 6.404 6.404 0 01-1.086 3.451zm18.553.871c-3.59-2.16-7.348-3.568-11.607-3.11a13.393 13.393 0 00-5.03 1.558l.074-.143c.996-2.016 1.096-3.634.295-5.09a6.416 6.416 0 00-.545-.806 17.932 17.932 0 0110.19 1.97 21.844 21.844 0 016.029 4.72c.25.262.451.567.594.9zm26.042-5.299c-2.013 8.58-7.175 12.514-15.946 14.139a3.667 3.667 0 01-.505 0c1.163-.741 2.19-1.356 3.173-2.03 2.887-1.973 4.983-4.568 6.092-7.92.628-1.914.539-7.87.539-7.87s6.604 3.694 6.647 3.68zm-19.6 38.141c-.548.312-1.103.608-1.661.887a1.083 1.083 0 01-1.402-.19c-4.923-4.65-7.598-10.185-6.581-17.108.25-1.708.71-3.386 1.076-5.073l.273.033c.12 1.445.202 2.897.365 4.339.522 4.597 2.9 8.385 6.545 10.673a6.215 6.215 0 001.385 6.439z" fill="#fff"/><path d="M11.644 23.487a6.86 6.86 0 01-.362.628c-.187.288-.39.567-.605.834a.635.635 0 01-.468.19c-.097-.044-.11-.087-.117-.104a.207.207 0 010-.103.897.897 0 01.137-.289 6.725 6.725 0 001.162-3.614 3.654 3.654 0 00-1.465-3.067 2.882 2.882 0 00-.176-.132c-.598-.4-1.233-.741-1.897-1.02l-.106-.05c-.349-.16-.605-.236-.794-.113-.19.123-.226.382-.226.77v11.051c0 1.113-.026 2.262.027 3.392a3.036 3.036 0 01-1.216 2.581c-.967.774-2.355 1.116-3.375.83l-.16-.04a3.836 3.836 0 01-.478-.152A2.455 2.455 0 01.09 33.54a2.508 2.508 0 01.438-2.107 4.093 4.093 0 013.306-1.62c.464-.006.925.081 1.355.255.116.047.236.086.389.14l.269.09.22.076V12.178a1.395 1.395 0 01.029-.508.664.664 0 01.332-.36.597.597 0 01.28.223c.275 2.057 1.584 3.322 3.135 4.691a.288.288 0 01.047.043c.14.12.272.243.402.366a10.686 10.686 0 011.046 1.133c.235.295.445.61.628.94.721 1.355.628 2.867-.322 4.78z" fill="url(#paint3_linear_289_2)"/><path d="M36.918 10.126s6.957 8.235 9.717 2.159c2.362-3.72-2.614-4.558-2.614-4.558C34.832 7.923 37.377 0 37.377 0c-4.754 7.598 3.395 10.724 3.395 10.724m6.358 3.943s11.046 7.511 13.574 6.255c2.528-1.255-12.102-8.637-12.102-8.637" fill="#9E47E6"/><path d="M38.828 58.884a4.986 4.986 0 100-9.973 4.986 4.986 0 000 9.973z" fill="#F48028"/></g><defs><linearGradient id="paint0_linear_289_2" x1="9.245" y1="24.414" x2="32.816" y2="19.577" gradientUnits="userSpaceOnUse"><stop stop-color="#1EAFFC"/><stop offset="1" stop-color="#0292FC"/></linearGradient><linearGradient id="paint1_linear_289_2" x1="45.682" y1="24.381" x2="40.131" y2="46.858" gradientUnits="userSpaceOnUse"><stop stop-color="#9E47E6"/><stop offset="1" stop-color="#66368C"/></linearGradient><linearGradient id="paint2_linear_289_2" x1="43.888" y1="56.12" x2="22.62" y2="39.901" gradientUnits="userSpaceOnUse"><stop stop-color="#F48028"/><stop offset="1" stop-color="#F4710F"/></linearGradient><linearGradient id="paint3_linear_289_2" x1="3932.55" y1="5880.21" x2="4490.95" y2="5821.05" gradientUnits="userSpaceOnUse"><stop stop-color="#1EAFFC"/><stop offset="1" stop-color="#0292FC"/></linearGradient><clipPath id="clip0_289_2"><path fill="#fff" d="M0 0h61v59.229H0z"/></clipPath></defs></svg>