<svg width="49" height="46" fill="none" xmlns="http://www.w3.org/2000/svg"><path fill-rule="evenodd" clip-rule="evenodd" d="M15.975 1.43c7.97 0 14.453 6.085 14.453 13.567 0 7.481-6.484 13.568-14.453 13.568-7.97 0-14.453-6.087-14.453-13.568 0-7.482 6.483-13.568 14.453-13.568zm30.874 39.276l-3.488 3.275-13.378-12.558 3.489-3.276 13.377 12.559zM15.976 29.994c4.13 0 7.888-1.493 10.728-3.917l3.41 3.203-2.283 2.143L43.36 46 49 40.706l-15.528-14.58-2.282 2.143-3.412-3.201c2.582-2.667 4.172-6.193 4.172-10.071C31.95 6.727 24.784 0 15.975 0S0 6.727 0 14.997s7.166 14.997 15.975 14.997z" fill="#F4710F"/></svg>