<svg width="49" height="42" fill="none" xmlns="http://www.w3.org/2000/svg"><path fill-rule="evenodd" clip-rule="evenodd" d="M40.052 31.74h-.757V18.136h.757c3.748 0 6.8 3.051 6.8 6.802 0 3.75-3.052 6.802-6.8 6.802zm-18.136 8.312V38.54h4.531v1.512h-4.531zM9.068 31.74h-.757c-3.748 0-6.8-3.051-6.8-6.802 0-3.75 3.052-6.801 6.8-6.801h.757V31.74zm30.984-15.114h-.757v-3.78C39.295 12.72 39.122 0 24.182 0 9.24 0 9.068 12.72 9.068 12.846v3.779h-.757C3.73 16.625 0 20.355 0 24.938s3.73 8.312 8.311 8.312h2.269V12.845c0-.46.154-11.334 13.602-11.334 13.405 0 13.6 10.873 13.602 11.335V35.76l-9.823 3.93v-2.662h-7.56v4.533h6.949l11.945-4.777V33.25h.757c4.58 0 8.312-3.729 8.312-8.313 0-4.583-3.731-8.312-8.312-8.312z" fill="#F4710F"/></svg>