<svg width="109" height="89" fill="none" xmlns="http://www.w3.org/2000/svg"><path fill-rule="evenodd" clip-rule="evenodd" d="M22.438 84.037c1.153-6.957 7.25-9.738 13.477-11.975l.197-.066c4.44-1.182 12.349-5.924 12.349-16.099 0-8.63-3.494-12.84-5.377-15.106-.372-.457-.826-1.042-.725-.914-.15-.334-.89-2.27.176-6.777.504-2.113-.347-3.27-.347-3.27-1.35-3.033-3.856-8.685-1.973-13.249 2.527-6.315 4.767-7.56 8.825-9.384.236-.107.468-.231.684-.371.766-.503 4.013-1.883 7.683-1.883 1.838 0 3.383.35 4.606 1.047 1.47.828 2.88 2.41 5.01 7.485 3.967 9.054 1.455 14.117.186 15.872a4.95 4.95 0 00-.8 4.029c.981 4.148.347 5.899.18 6.25-.04.049-.634.803-.936 1.165-1.878 2.266-5.377 6.476-5.377 15.106 0 10.175 7.915 14.917 12.355 16.1l.196.065c6.228 2.237 12.324 5.018 13.477 11.975H22.438zm51.643-16.774s-8.86-2.114-8.86-11.366c0-8.127 3.64-10.99 5.044-12.968 0 0 2.89-2.53.951-10.69 3.227-4.474 4.274-11.757.328-20.75-2.2-5.252-4.139-8.132-7.099-9.804C62.275.453 59.808 0 57.407 0c-4.465 0-8.7 1.582-10.391 2.69-4.944 2.22-8.267 4.264-11.388 12.054-2.703 6.546.514 13.647 2.1 17.215-1.934 8.165.745 10.97.745 10.97 1.41 1.977 5.044 4.84 5.044 12.968 0 9.253-8.855 11.366-8.855 11.366-5.624 2.022-17.364 5.899-17.364 19.246 0 0 0 2.472 2.472 2.472h69.202c2.472 0 2.472-2.472 2.472-2.472 0-13.347-11.74-17.224-17.363-19.246zm24.17-5.446s-5.538-1.257-5.538-8.453c0-6.324 1.903-8.548 3.026-10.085 0 0 2.144-2.187.599-8.531 1.268-2.78 3.846-8.305 1.681-13.393-2.497-6.055-4.153-7.65-8.105-9.376-1.354-.86-4.743-2.092-8.317-2.092-1.686 0-3.408.3-4.984 1.017.63 1.598 1.163 3.185 1.546 4.746.06-.037.125-.083.19-.12.842-.465 1.94-.7 3.248-.7 2.558 0 5.05.927 5.659 1.314.216.14.448.264.68.367 2.431 1.059 3.342 1.458 5.512 6.727 1.309 3.073-.554 7.155-1.556 9.351-.463 1.01-.619 2.25-.357 3.325.675 2.776.362 4.07.252 4.391a.926.926 0 01-.04.058l-.167.226c-1.334 1.8-3.81 5.162-3.81 12.775 0 8.507 5.718 12.272 9.036 13.186 3.156 1.129 6.071 2.9 6.811 7.596l-10.688.005c.947 1.454 1.727 3.11 2.321 4.943l11.02-.004c2.472 0 2.472-2.472 2.472-2.472 0-9.887-5.991-13.227-10.491-14.801zM11.936 66.55c3.318-.914 9.037-4.68 9.037-13.186 0-7.613-2.482-10.975-3.81-12.775l-.167-.226a.713.713 0 00-.045-.058c-.106-.321-.423-1.615.256-4.391.262-1.076.106-2.316-.357-3.325-1.002-2.195-2.864-6.278-1.556-9.351 2.17-5.269 3.076-5.668 5.513-6.727a4.74 4.74 0 00.68-.367c.609-.387 3.1-1.314 5.658-1.314 1.229 0 2.25.227 3.071.639a19.3 19.3 0 01.82-2.558c.303-.759.625-1.405.937-2.077-1.535-.667-3.197-.947-4.828-.947-3.574 0-6.962 1.231-8.317 2.092-3.951 1.726-5.613 3.32-8.105 9.376-2.165 5.088.413 10.612 1.682 13.393-1.55 6.344.599 8.531.599 8.531 1.123 1.537 3.03 3.761 3.03 10.085 0 7.197-5.542 8.453-5.542 8.453C5.996 63.39 0 66.73 0 76.618c0 0 0 2.472 2.472 2.472l11.02.004c.594-1.833 1.37-3.49 2.32-4.943l-10.687-.005c.74-4.696 3.655-6.467 6.812-7.596z" fill="#fff" fill-opacity=".33"/></svg>